<?xml version="1.0" standalone="no"?>
<!DOCTYPE svg PUBLIC "-//W3C//DTD SVG 20010904//EN"
 "http://www.w3.org/TR/2001/REC-SVG-20010904/DTD/svg10.dtd">
<svg version="1.0" xmlns="http://www.w3.org/2000/svg"
 width="205.000000pt" height="205.000000pt" viewBox="0 0 205.000000 205.000000"
 preserveAspectRatio="xMidYMid meet">
<metadata>
Created by potrace 1.14, written by Peter Selinger 2001-2017
</metadata>
<g transform="translate(0.000000,205.000000) scale(0.100000,-0.100000)"
fill="#000000" stroke="none">
<path d="M0 1025 l0 -675 1025 0 1025 0 0 675 0 675 -1025 0 -1025 0 0 -675z
m640 83 c0 -366 -2 -377 -63 -422 -26 -19 -42 -21 -186 -21 -174 0 -193 6
-231 68 -16 26 -20 51 -20 135 l0 102 110 0 110 0 0 -75 0 -75 30 0 30 0 0
310 0 310 110 0 110 0 0 -332z m523 308 c56 -28 71 -64 72 -176 l0 -95 -107
-3 -107 -3 -3 73 -3 73 -42 3 -43 3 0 -240 c0 -153 4 -241 10 -242 6 -1 21 -1
35 -1 14 0 30 0 35 1 6 1 10 32 10 71 l0 70 111 0 111 0 -4 -100 c-3 -81 -8
-105 -24 -127 -39 -52 -64 -58 -244 -58 -184 0 -202 5 -240 68 -19 30 -20 52
-20 310 0 302 4 330 55 363 41 27 88 33 230 30 102 -1 138 -6 168 -20z m421
-176 l81 -195 3 198 2 198 98 -3 c53 -2 96 -6 95 -10 -2 -5 -3 -179 -3 -388
l0 -381 -92 3 -91 3 -81 190 -81 189 -3 -192 -2 -192 -94 0 c-76 0 -95 3 -100
16 -8 22 -8 749 1 758 4 4 47 5 96 4 l89 -3 82 -195z"/>
</g>
</svg>
